#!OML:ASF G:\JayActor3\Patient Classification 1\Patient 1\Session 6\male.ASF
:FULLY-SPECIFIED
:DEGREES
1264
root 14.5299 14.4012 -7.67647 17.8386 -64.0158 -0.961475
lowerback 37.2729 -0.724213 2.87926
upperback 20.3979 -2.06574 1.49549
thorax 4.03594 -1.64065 0.610283
lowerneck 1.66882 3.14405 -1.48549
upperneck -16.5766 3.68787 -2.79357
head -5.23427 2.01866 -0.80204
rclavicle -1.22377e-014 1.40205e-014
rhumerus 0.216995 10.7776 -72.1465
rradius 63.5885
rwrist -5.86094
rhand -25.1679 -11.3099
rfingers 7.12502
rthumb 1.34936 -41.2854
lclavicle -1.22377e-014 1.40205e-014
lhumerus 37.4425 -1.17537 52.2782
lradius 60.0967
lwrist 27.0655
lhand -16.2732 9.86376
lfingers 7.12502
lthumb 9.93657 39.6092
rfemur -66.9499 -5.24027 22.66
rtibia 74.0483
rfoot -25.133 -18.2606
rtoes -3.39599
lfemur -58.9836 16.7358 -30.2836
ltibia 71.2158
lfoot -27.8724 13.5447
ltoes -5.63891
1265
root 14.4986 14.3977 -7.6855 17.6242 -64.02 -0.814395
lowerback 37.3672 -0.77821 2.89122
upperback 20.3718 -2.12255 1.50125
thorax 3.97741 -1.66907 0.629684
lowerneck 1.68717 3.17854 -1.52124
upperneck -16.6117 3.72218 -2.85815
head -5.2476 2.04235 -0.81876
rclavicle -6.03808e-015 9.88022e-015
rhumerus 0.253464 10.8281 -72.1832
rradius 63.4364
rwrist -5.85323
rhand -25.153 -11.2868
rfingers 7.12502
rthumb 1.36382 -41.2622
lclavicle -6.03808e-015 9.88022e-015
lhumerus 37.6398 -0.896749 52.2948
lradius 60.0059
lwrist 27.2022
lhand -16.6355 9.7486
lfingers 7.12502
lthumb 9.58705 39.5105
rfemur -66.8479 -5.26922 22.7312
rtibia 74.187
rfoot -25.34 -18.3207
rtoes -3.17506
lfemur -58.8441 16.7866 -30.2273
ltibia 71.3349
lfoot -27.9461 13.6043
ltoes -5.85466
1266
root 14.4667 14.3951 -7.69517 17.4644 -63.9982 -0.706525
lowerback 37.4439 -0.844293 2.92359
upperback 20.3451 -2.18723 1.5168
thorax 3.92406 -1.69997 0.650708
lowerneck 1.70679 3.2193 -1.54057
upperneck -16.6296 3.76576 -2.93128
head -5.25522 2.07026 -0.841113
rclavicle -3.51352e-014 4.32512e-014
rhumerus 0.329159 10.8781 -72.2219
rradius 63.244
rwrist -5.82581
rhand -25.1531 -11.2732
rfingers 7.12502
rthumb 1.3637 -41.2486
lclavicle -3.51352e-014 4.32512e-014
lhumerus 37.8262 -0.626323 52.3115
lradius 59.9094
lwrist 27.3913
lhand -16.9962 9.62007
lfingers 7.12502
lthumb 9.23896 39.3977
rfemur -66.7217 -5.29617 22.802
rtibia 74.2989
rfoot -25.5582 -18.3439
rtoes -3.024
lfemur -58.7467 16.8146 -30.1545
ltibia 71.4718
lfoot -27.9835 13.6729
ltoes -6.06227
1267
root 14.4343 14.3931 -7.70547 17.3619 -63.9468 -0.637212
lowerback 37.4966 -0.921188 2.98568
upperback 20.3174 -2.25528 1.54249
thorax 3.8774 -1.73009 0.667478
lowerneck 1.72458 3.26353 -1.53789
upperneck -16.6218 3.81664 -3.00577
head -5.25388 2.10053 -0.867491
rclavicle 1.21507e-014 -2.59942e-014
rhumerus 0.430963 10.91 -72.2617
rradius 63.0152
rwrist -5.77464
rhand -25.1579 -11.2688
rfingers 7.12502
rthumb 1.35904 -41.2442
lclavicle 1.21507e-014 -2.59942e-014
lhumerus 38.0025 -0.386713 52.3414
lradius 59.8089
lwrist 27.6066
lhand -17.3335 9.49133
lfingers 7.12502
lthumb 8.91355 39.2831
rfemur -66.5809 -5.31854 22.867
rtibia 74.3818
rfoot -25.7646 -18.3275
rtoes -2.94635
lfemur -58.6971 16.8146 -30.0651
ltibia 71.6308
lfoot -27.992 13.7438
ltoes -6.23633
1268
root 14.4016 14.3917 -7.7166 17.3166 -63.871 -0.603846
lowerback 37.5194 -0.9966 3.06421
upperback 20.2901 -2.31615 1.5864
thorax 3.8412 -1.75607 0.692044
lowerneck 1.73853 3.309 -1.5103
upperneck -16.5899 3.87227 -3.07934
head -5.24373 2.1315 -0.897483
rclavicle -5.66785e-014 -4.70716e-014
rhumerus 0.549322 10.9212 -72.2905
rradius 62.7602
rwrist -5.70121
rhand -25.1695 -11.2818
rfingers 7.12502
rthumb 1.34784 -41.2573
lclavicle -5.66785e-014 -4.70716e-014
lhumerus 38.169 -0.190418 52.3974
lradius 59.7059
lwrist 27.8184
lhand -17.6123 9.35147
lfingers 7.12502
lthumb 8.64448 39.1545
rfemur -66.4426 -5.33531 22.9343
rtibia 74.4396
rfoot -25.9532 -18.2849
rtoes -2.92518
lfemur -58.696 16.7887 -29.9615
ltibia 71.8074
lfoot -27.9711 13.8214
ltoes -6.38257
1269
root 14.3687 14.3911 -7.72833 17.3125 -63.7773 -0.592272
lowerback 37.5123 -1.0634 3.15359
upperback 20.2658 -2.36356 1.65035
thorax 3.8185 -1.77552 0.727254
lowerneck 1.75063 3.35146 -1.45885
upperneck -16.5418 3.92637 -3.15156
head -5.22764 2.16012 -0.930593
rclavicle -5.66164e-014 -1.66257e-014
rhumerus 0.672452 10.904 -72.3
rradius 62.4908
rwrist -5.60189
rhand -25.1956 -11.2944
rfingers 7.12502
rthumb 1.32263 -41.27
lclavicle -5.66164e-014 -1.66257e-014
lhumerus 38.3331 -0.0463538 52.4849
lradius 59.6028
lwrist 27.9931
lhand -17.7955 9.21135
lfingers 7.12502
lthumb 8.46771 39.0216
rfemur -66.3187 -5.35387 23.0108
rtibia 74.4792
rfoot -26.123 -18.2325
rtoes -2.91443
lfemur -58.7301 16.7402 -29.8512
ltibia 71.9892
lfoot -27.9211 13.9147
ltoes -6.53186
1270
root 14.3358 14.392 -7.74033 17.3148 -63.6781 -0.570746
lowerback 37.4802 -1.1301 3.25234
upperback 20.2483 -2.40928 1.71127
thorax 3.81109 -1.79268 0.753008
lowerneck 1.76398 3.3964 -1.39164
upperneck -16.4951 3.98784 -3.20609
head -5.21203 2.19033 -0.961169
rclavicle -1.03672e-013 7.66097e-015
rhumerus 0.79865 10.8683 -72.3109
rradius 62.2235
rwrist -5.49512
rhand -25.2184 -11.3031
rfingers 7.12502
rthumb 1.30061 -41.2789
lclavicle -1.03672e-013 7.66097e-015
lhumerus 38.4911 0.0572303 52.5764
lradius 59.5011
lwrist 28.1013
lhand -17.8508 9.07744
lfingers 7.12502
lthumb 8.4143 38.8898
rfemur -66.2139 -5.37831 23.0906
rtibia 74.5079
rfoot -26.2773 -18.1868
rtoes -2.8916
lfemur -58.779 16.6787 -29.7497
ltibia 72.1608
lfoot -27.8488 14.022
ltoes -6.70606
1271
root 14.303 14.3943 -7.75245 17.3001 -63.5867 -0.518152
lowerback 37.4285 -1.19011 3.34191
upperback 20.2385 -2.45135 1.76743
thorax 3.81826 -1.80826 0.776579
lowerneck 1.78381 3.44508 -1.31
upperneck -16.4643 4.05621 -3.25299
head -5.2021 2.22271 -0.992416
rclavicle 6.64935e-014 -2.93673e-014
rhumerus 0.921484 10.8217 -72.3207
rradius 61.9766
rwrist -5.39131
rhand -25.2269 -11.3056
rfingers 7.12502
rthumb 1.29246 -41.2814
lclavicle 6.64935e-014 -2.93673e-014
lhumerus 38.6459 0.130864 52.6488
lradius 59.4023
lwrist 28.1477
lhand -17.7684 8.96881
lfingers 7.12502
lthumb 8.49383 38.778
rfemur -66.1287 -5.40463 23.1665
rtibia 74.5297
rfoot -26.4263 -18.1491
rtoes -2.81554
lfemur -58.8262 16.6164 -29.6672
ltibia 72.3073
lfoot -27.7595 14.1371
ltoes -6.91135
1272
root 14.2703 14.3979 -7.76434 17.2399 -63.5099 -0.412716
lowerback 37.3714 -1.24898 3.41897
upperback 20.2356 -2.49735 1.80793
thorax 3.83441 -1.8256 0.790866
lowerneck 1.81096 3.50271 -1.21697
upperneck -16.4587 4.13754 -3.29672
head -5.20078 2.26079 -1.0257
rclavicle -1.92821e-014 1.92076e-014
rhumerus 1.03483 10.7739 -72.339
rradius 61.7683
rwrist -5.30433
rhand -25.2249 -11.2993
rfingers 7.12502
rthumb 1.29431 -41.2752
lclavicle -1.92821e-014 1.92076e-014
lhumerus 38.7817 0.183799 52.6915
lradius 59.3164
lwrist 28.1237
lhand -17.5551 8.87908
lfingers 7.12502
lthumb 8.69966 38.6798
rfemur -66.0508 -5.43124 23.223
rtibia 74.5454
rfoot -26.5642 -18.1268
rtoes -2.73518
lfemur -58.8488 16.551 -29.6072
ltibia 72.417
lfoot -27.6646 14.2582
ltoes -7.15027
1273
root 14.2377 14.4034 -7.77583 17.1165 -63.4523 -0.239722
lowerback 37.3203 -1.30599 3.47994
upperback 20.2358 -2.54663 1.83075
thorax 3.85142 -1.84456 0.795892
lowerneck 1.8441 3.57053 -1.11817
upperneck -16.4794 4.23284 -3.33954
head -5.20827 2.30554 -1.06087
rclavicle 1.52567e-014 -5.15225e-014
rhumerus 1.13002 10.7272 -72.3634
rradius 61.6099
rwrist -5.24586
rhand -25.2038 -11.2869
rfingers 7.12502
rthumb 1.31473 -41.2626
lclavicle 1.52567e-014 -5.15225e-014
lhumerus 38.8956 0.21482 52.7006
lradius 59.2476
lwrist 28.0455
lhand -17.2409 8.80706
lfingers 7.12502
lthumb 9.0029 38.595
rfemur -65.9687 -5.45407 23.245
rtibia 74.5519
rfoot -26.6878 -18.1176
rtoes -2.66941
lfemur -58.8296 16.4833 -29.5717
ltibia 72.4793
lfoot -27.5749 14.3724
ltoes -7.38739
